<?xml version="1.0" standalone="no"?>
<!DOCTYPE svg PUBLIC "-//W3C//DTD SVG 20010904//EN"
 "http://www.w3.org/TR/2001/REC-SVG-20010904/DTD/svg10.dtd">
<svg version="1.0" xmlns="http://www.w3.org/2000/svg"
 width="720.000000pt" height="720.000000pt" viewBox="0 0 720.000000 720.000000"
 preserveAspectRatio="xMidYMid meet">
<metadata>
Created by potrace 1.11, written by Peter Selinger 2001-2013
</metadata>
<g transform="translate(0.000000,720.000000) scale(0.100000,-0.100000)"
fill="#000000" stroke="none">
<path d="M3487 6978 c-17 -18 -27 -27 -22 -19 5 9 4 12 -3 7 -6 -4 -8 -14 -5
-23 4 -10 2 -14 -4 -10 -6 4 -22 -6 -36 -22 -14 -17 -28 -27 -31 -24 -3 4 -6
-9 -7 -28 -1 -50 -8 -102 -16 -108 -3 -3 -3 19 0 49 4 37 3 50 -3 40 -9 -13
-14 -7 -11 12 0 4 -6 5 -14 2 -9 -4 -22 -1 -29 6 -11 9 -20 8 -38 -4 -46 -29
-105 -38 -166 -25 -31 7 -62 16 -68 21 -7 5 -14 3 -17 -6 -3 -9 -15 -12 -31
-9 -18 4 -26 1 -26 -8 0 -11 -2 -11 -8 -1 -10 14 -72 5 -72 -11 0 -5 -9 -2
-20 8 -11 10 -20 13 -20 7 0 -6 -9 -13 -19 -17 -12 -4 -18 -12 -14 -21 4 -10
-3 -14 -28 -15 -19 0 -76 -2 -127 -3 -82 -3 -90 -2 -75 11 10 9 5 7 -12 -3
-16 -10 -42 -24 -56 -31 -34 -17 -53 -39 -44 -53 3 -5 1 -10 -4 -10 -6 0 -11
4 -11 9 0 5 -18 2 -39 -7 -33 -14 -37 -20 -28 -32 10 -13 10 -13 -5 -1 -10 7
-19 25 -19 40 -2 23 -2 24 -6 4 -2 -13 -8 -23 -12 -23 -4 0 -13 -16 -21 -35
-7 -19 -17 -32 -21 -29 -5 2 -6 11 -2 19 3 8 0 15 -7 15 -8 0 -9 -10 -5 -29 4
-20 2 -30 -9 -34 -22 -9 -39 -77 -23 -96 10 -14 10 -14 -3 -4 -8 6 -19 11 -25
11 -5 0 -12 8 -15 17 -5 15 -8 14 -30 -4 -14 -11 -20 -20 -15 -21 6 0 16 5 23
12 9 9 12 9 12 1 0 -7 -4 -15 -10 -18 -5 -3 -10 -14 -10 -23 0 -15 2 -15 10
-2 6 9 10 10 10 3 0 -16 -17 -26 -25 -13 -4 6 -11 8 -16 4 -5 -3 -16 0 -24 6
-11 9 -15 9 -15 1 0 -6 20 -21 45 -33 24 -12 47 -28 50 -35 2 -8 0 -11 -5 -8
-6 3 -10 2 -10 -2 0 -5 16 -15 36 -22 52 -19 36 -24 -22 -6 -59 18 -104 19
-104 3 0 -6 -6 -4 -13 6 -11 15 -21 17 -48 12 -19 -3 -40 -7 -47 -8 -8 -1 -9
-5 -3 -11 5 -5 7 -16 4 -23 -3 -8 0 -20 6 -28 6 -7 8 -16 4 -19 -3 -4 8 -10
26 -13 18 -4 35 -12 37 -19 3 -7 19 -11 40 -9 22 1 32 -1 27 -9 -4 -6 0 -8 10
-4 10 4 17 2 17 -4 0 -7 -10 -9 -25 -5 -14 4 -25 2 -25 -4 0 -5 7 -10 15 -10
8 0 15 -7 15 -16 0 -13 -7 -14 -42 -8 -55 11 -109 8 -118 -5 -3 -6 -28 -14
-56 -18 -27 -3 -58 -12 -70 -20 -11 -7 -23 -11 -26 -8 -2 3 -5 -2 -5 -10 0 -8
4 -15 9 -15 5 0 6 -4 3 -10 -3 -6 1 -7 9 -4 9 3 14 10 11 14 -3 4 9 13 27 19
41 14 43 14 27 -6 -13 -15 -12 -15 9 -4 12 6 22 8 22 2 0 -12 -27 -22 -43 -15
-19 7 -72 -37 -56 -46 8 -6 6 -11 -8 -19 -11 -5 -23 -7 -27 -3 -4 3 -11 0 -16
-8 -14 -22 -12 -30 8 -30 13 -1 11 -4 -8 -16 -23 -14 -23 -14 -2 -9 15 5 22 2
22 -8 0 -10 -15 -17 -44 -21 -24 -4 -50 -13 -56 -21 -7 -8 -16 -12 -21 -9 -5
3 -9 0 -9 -5 0 -14 17 -14 25 -1 3 6 11 10 17 10 6 0 3 -9 -8 -21 -19 -21 -19
-21 9 -8 15 7 27 16 27 21 0 4 7 8 16 8 8 0 38 10 65 21 27 12 52 19 56 16 3
-4 -15 -16 -41 -27 -26 -11 -45 -24 -41 -29 3 -6 -11 -13 -32 -17 -21 -3 -58
-18 -83 -32 -48 -27 -112 -83 -105 -91 3 -2 -1 -11 -8 -19 -10 -13 -9 -14 13
-3 14 7 3 -7 -25 -30 -61 -53 -126 -122 -120 -127 3 -3 13 1 22 9 10 7 6 0 -8
-16 -14 -17 -36 -46 -48 -65 l-23 -35 30 35 c17 19 37 35 44 35 7 0 13 6 13
14 0 7 20 30 45 49 35 29 40 31 21 9 -14 -15 -26 -34 -27 -41 -1 -8 -17 -28
-36 -45 -21 -19 -28 -31 -18 -31 9 0 5 -5 -9 -13 -27 -13 -91 -101 -91 -124 0
-22 18 -5 40 38 18 34 40 54 116 107 16 11 16 11 -4 1 -13 -6 -26 -9 -28 -6
-2 2 6 8 19 14 103 49 137 63 153 64 10 0 28 5 39 10 16 7 14 8 -10 4 -29 -6
-30 -6 -8 9 12 9 29 13 37 10 9 -3 24 0 34 7 12 10 12 7 -3 -10 l-20 -24 22
12 c12 6 34 11 50 11 21 -1 14 -5 -30 -21 -32 -11 -63 -16 -69 -13 -7 4 -8 3
-4 -4 5 -8 -3 -10 -26 -8 -23 3 -47 -3 -76 -21 -55 -31 -49 -40 9 -14 24 11
47 17 52 14 9 -5 -2 -11 -91 -48 -42 -18 -71 -41 -35 -28 10 3 -12 -21 -48
-55 -65 -60 -97 -111 -61 -97 13 5 12 1 -4 -17 -12 -13 -34 -44 -49 -71 -23
-40 -24 -46 -9 -40 18 7 18 6 0 -22 -10 -16 -20 -49 -22 -74 -3 -31 -1 -41 6
-31 18 29 18 4 -1 -35 -24 -49 -18 -76 11 -50 20 18 28 41 10 30 -5 -3 -3 10
5 29 17 41 18 49 6 41 -8 -4 -9 44 -1 53 1 1 3 7 4 14 0 6 8 14 16 16 11 4 11
-1 -3 -24 -12 -19 -4 -13 22 16 23 25 41 49 41 54 0 4 7 6 15 3 8 -4 17 -2 20
4 4 5 12 9 18 8 26 -3 37 2 87 42 28 22 53 39 56 37 5 -6 -59 -57 -108 -87
-21 -12 -38 -19 -38 -14 0 4 -5 0 -11 -9 -5 -10 -17 -18 -25 -18 -8 0 -12 -5
-9 -10 4 -7 19 -3 39 10 58 35 63 22 6 -15 -30 -19 -66 -50 -80 -68 -27 -35
-26 -34 51 23 l34 25 -33 -42 c-18 -23 -35 -51 -37 -63 -5 -25 -45 -83 -52
-76 -3 3 6 21 21 41 18 23 22 35 13 35 -14 0 -47 -60 -47 -85 0 -24 27 -17 49
13 11 15 21 22 21 15 0 -6 -5 -15 -10 -18 -5 -3 -10 -16 -10 -28 0 -12 4 -17
8 -12 4 6 12 11 19 12 8 2 5 -13 -8 -44 -27 -63 -18 -64 16 -1 16 29 37 64 47
77 16 21 18 22 18 5 0 -11 -12 -37 -26 -59 l-26 -40 31 33 c17 18 31 42 31 55
0 12 10 42 22 67 12 25 22 50 23 55 0 6 5 16 9 24 7 11 5 13 -7 8 -10 -4 -24
-10 -32 -13 -8 -3 -15 -2 -15 4 0 11 24 22 50 22 10 0 40 21 66 46 27 26 41
44 31 40 -10 -3 -21 -6 -23 -6 -3 0 -9 -11 -14 -25 -5 -14 -15 -25 -21 -25 -8
0 -8 4 1 15 7 8 8 15 2 15 -12 0 -38 -30 -26 -30 5 0 1 -5 -9 -11 -10 -6 -21
-8 -24 -5 -8 7 47 58 83 76 16 8 40 23 54 33 25 19 25 19 2 12 l-24 -7 20 20
c11 11 31 26 43 32 18 10 19 14 8 20 -17 10 -69 1 -69 -11 0 -5 -4 -9 -10 -9
-18 0 -10 18 16 35 15 9 23 12 19 5 -5 -8 -3 -11 6 -8 8 3 13 9 12 14 -1 5 14
9 32 8 19 -1 42 4 52 12 19 14 3 13 -92 -2 -39 -6 -21 11 25 24 20 6 26 11 15
11 -27 1 -144 -45 -175 -69 l-25 -19 34 4 c18 2 32 2 30 1 -27 -25 -99 -74
-99 -67 0 5 14 18 31 29 25 16 28 20 14 25 -17 7 -70 -37 -61 -51 3 -4 -4 -13
-15 -20 -23 -14 -26 0 -4 18 12 10 13 15 4 21 -12 7 123 114 145 114 6 0 12 4
13 9 3 16 58 46 83 45 23 -1 23 -2 -5 -9 l-30 -8 28 -1 c15 0 30 5 33 13 3 8
17 17 31 21 16 4 23 11 19 20 -3 8 0 14 6 12 6 -1 13 4 15 11 3 7 -3 12 -14
12 -15 1 -13 3 7 16 l25 15 -27 -4 c-16 -2 -28 0 -28 4 0 5 12 9 26 9 14 0 35
5 46 11 17 9 18 13 7 20 -12 8 -12 11 1 19 13 8 12 10 -4 10 -17 0 -14 4 12
26 62 52 27 70 -41 22 -16 -11 -30 -18 -32 -16 -3 2 24 23 60 46 42 28 62 48
59 57 -3 8 -13 11 -22 8 -12 -4 -10 0 6 16 12 12 22 26 22 31 0 6 7 10 16 10
19 0 81 57 72 66 -4 3 -21 1 -38 -4 -44 -16 -30 0 27 28 35 18 43 25 29 28
-15 3 -16 6 -5 13 12 7 12 9 -1 9 -18 0 26 24 61 33 13 3 43 24 66 47 23 22
46 40 51 40 5 0 17 9 27 20 10 11 24 20 32 20 8 0 12 4 9 9 -4 5 2 8 11 7 10
-2 32 8 50 21 30 23 53 24 53 3 0 -4 -43 -30 -95 -56 -53 -26 -100 -53 -106
-61 -14 -16 3 -17 19 -1 7 7 12 8 12 4 0 -5 15 3 34 18 19 14 37 26 39 26 9 0
1 -28 -13 -45 -11 -13 -6 -13 24 4 l37 21 -18 -24 c-10 -13 -22 -21 -27 -18
-5 3 -6 0 -3 -5 4 -6 0 -16 -8 -23 -8 -7 -15 -17 -15 -23 0 -6 7 -1 16 12 13
17 19 20 25 10 6 -11 12 -11 33 0 13 8 36 14 50 14 14 0 26 3 26 8 0 5 7 6 15
3 8 -4 17 1 21 9 7 20 56 37 85 30 15 -4 20 -3 15 5 -5 8 0 12 13 12 12 0 21
5 21 11 0 20 64 38 106 29 29 -7 46 -5 69 7 35 18 89 27 80 13 -7 -11 54 8 73
23 8 6 12 6 12 -1 0 -16 57 -6 102 18 42 22 63 26 53 10 -3 -5 -2 -10 4 -10 5
0 13 5 17 11 3 6 15 8 26 5 12 -2 27 1 34 9 11 10 22 11 50 4 25 -7 39 -7 49
1 13 11 72 9 92 -3 6 -4 13 0 17 8 3 8 13 15 21 15 10 0 13 -5 9 -12 -5 -9 -2
-9 9 1 12 9 17 10 17 2 0 -7 4 -10 9 -7 13 8 42 -4 35 -15 -10 -17 16 -9 36
11 28 28 42 26 30 -5 -11 -30 -6 -31 27 -5 27 21 59 27 48 10 -3 -5 2 -10 11
-10 14 0 15 -3 6 -12 -7 -7 -12 -17 -12 -23 1 -5 9 -1 18 11 34 41 88 54 155
40 21 -5 27 -3 21 5 -5 9 -2 10 12 5 26 -10 26 -10 54 -2 15 4 39 2 55 -5 17
-7 33 -12 37 -11 4 1 30 -7 58 -18 28 -11 54 -19 58 -17 4 1 22 -13 40 -31 18
-18 32 -29 32 -25 1 4 8 -1 18 -12 9 -11 26 -22 37 -23 27 -5 164 -121 223
-190 27 -31 73 -93 102 -137 67 -100 67 -100 113 -145 20 -21 37 -42 37 -48 0
-5 18 -28 40 -51 23 -23 38 -46 35 -51 -3 -5 -1 -11 5 -15 5 -3 17 -23 25 -43
9 -20 23 -50 30 -67 33 -74 55 -128 55 -139 0 -6 8 -27 19 -46 24 -46 88 -217
99 -267 l9 -41 -36 -6 c-20 -3 -61 -6 -91 -6 -31 0 -126 -9 -213 -20 -153 -19
-239 -19 -302 1 -37 11 -83 6 -123 -15 -39 -20 -53 -20 -28 -1 11 8 15 15 8
15 -6 0 -17 -9 -25 -20 -7 -10 -26 -24 -41 -30 -15 -5 -30 -19 -33 -30 -3 -11
-9 -20 -13 -20 -10 0 0 51 13 68 5 6 7 12 4 12 -3 0 -16 -14 -28 -32 -13 -17
-17 -28 -9 -23 9 6 11 4 5 -5 -7 -11 -12 -9 -23 8 -19 29 -36 28 -29 -1 4 -12
2 -29 -3 -37 -6 -10 -10 -11 -10 -3 0 7 -6 10 -13 7 -8 -3 -19 7 -26 22 -6 15
-14 24 -18 21 -3 -4 0 -13 6 -21 7 -8 11 -25 9 -37 -2 -18 -13 -25 -51 -35
-26 -7 -49 -8 -53 -3 -3 5 -14 1 -25 -9 -43 -41 -254 -67 -454 -57 -77 3 -178
8 -225 10 -47 1 -96 6 -110 10 -17 5 -21 4 -11 -3 20 -14 -6 -21 -43 -11 -17
5 -48 4 -75 -2 -25 -6 -55 -12 -66 -14 -393 -61 -664 -112 -603 -114 14 -1 53
6 85 14 69 17 306 51 413 59 307 22 424 28 551 24 153 -3 171 -8 190 -53 6
-14 7 -9 3 17 l-6 36 74 6 c40 3 114 8 165 11 l92 6 -4 -30 c-2 -17 -8 -39
-14 -49 -15 -29 -11 -100 6 -104 8 -2 28 -39 45 -83 17 -44 46 -111 64 -149
39 -79 41 -91 17 -106 -11 -7 -12 -10 -4 -7 8 2 19 12 25 22 23 41 33 46 63
33 15 -6 43 -28 61 -47 l34 -36 -22 38 c-12 21 -21 40 -19 42 7 6 59 -7 55
-14 -3 -4 14 -7 37 -6 34 0 41 3 39 17 -2 15 5 16 70 11 l73 -5 -25 25 c-14
13 -35 28 -48 32 -13 4 -21 12 -19 19 5 13 -18 38 -44 49 -8 3 25 4 73 3 81
-4 200 13 216 29 4 4 -6 5 -23 2 -76 -15 -128 -19 -122 -10 3 5 0 10 -8 10 -8
0 -12 -4 -9 -9 7 -12 -132 -1 -156 12 -20 11 -27 21 -12 18 4 0 14 2 22 5 8 3
49 8 90 12 105 8 125 11 138 19 6 3 13 2 16 -3 4 -5 1 -11 -6 -13 -8 -3 -6 -7
5 -11 9 -3 16 -3 16 1 -4 24 2 34 19 27 16 -7 41 -12 72 -14 12 -1 12 -4 -2
-15 -24 -18 -23 -26 3 -26 16 0 20 -5 16 -20 -3 -11 0 -23 5 -27 7 -4 8 -1 3
7 -5 9 -2 10 14 5 13 -4 21 -2 21 5 0 6 5 8 10 5 6 -3 10 0 10 9 0 8 13 20 29
27 19 9 27 18 23 28 -3 9 -2 13 3 9 4 -4 16 -3 27 3 14 8 19 18 15 35 -3 18 0
24 14 24 26 0 32 16 13 35 -16 15 -12 30 7 30 5 0 9 5 10 10 0 6 5 15 10 21 6
8 4 14 -6 18 -9 3 -13 2 -10 -4 6 -10 5 -11 -31 -15 -12 -1 -26 -5 -32 -8 -5
-4 -15 -1 -21 7 -10 11 -6 16 16 24 17 7 21 11 11 11 -10 1 -18 6 -18 11 0 13
6 13 30 0 11 -6 21 -6 25 -1 8 14 -23 21 -80 19 -45 -2 -47 -3 -22 -12 46 -17
30 -23 -40 -17 -38 3 -156 6 -263 6 -196 0 -220 4 -220 37 0 15 64 43 79 34 5
-3 20 3 34 14 14 11 30 20 36 20 7 0 31 10 54 22 54 28 127 40 127 21 0 -18
15 -17 35 3 9 10 24 14 38 10 13 -3 40 -1 61 5 29 8 41 8 46 -2 5 -6 16 -9 25
-5 26 10 39 -4 18 -20 -17 -13 -17 -14 1 -7 13 4 17 3 12 -5 -4 -7 -1 -12 8
-12 9 0 16 -4 16 -10 0 -5 -5 -10 -11 -10 -5 0 -7 -5 -3 -11 3 -6 0 -15 -7
-20 -11 -7 -10 -9 4 -9 10 0 29 -7 43 -17 24 -15 28 -15 61 1 19 9 33 19 30
22 -3 3 -14 1 -25 -5 -34 -18 -46 -12 -21 9 17 14 20 20 9 20 -8 1 1 7 20 14
l35 13 -28 7 c-15 3 -32 4 -37 1 -6 -4 -10 -2 -10 3 0 6 8 13 18 17 16 7 15 8
-3 15 -20 8 -20 9 0 9 18 1 18 2 -4 17 -13 9 -33 18 -45 19 -64 7 -63 6 -36
15 17 5 0 7 -50 6 -41 -1 -81 -6 -89 -10 -10 -7 -12 -5 -6 4 6 9 0 11 -21 6
-16 -3 -69 -13 -119 -21 -49 -9 -106 -20 -125 -25 -45 -13 -72 -12 -40 1 81
33 452 97 610 105 162 8 246 11 227 6 -18 -4 -18 -5 1 -18 13 -9 22 -31 27
-63 l7 -49 41 -1 c23 0 54 2 69 5 27 5 27 6 21 72 -3 37 -11 70 -17 74 -6 4
-44 8 -84 8 l-73 0 7 63 c11 93 9 133 -10 232 -10 50 -20 124 -22 165 -11 198
-20 270 -40 323 -8 21 -10 37 -4 37 16 0 -159 333 -188 359 -15 13 -47 41 -72
63 -52 46 -66 56 -56 40 11 -19 -9 -14 -27 6 -10 10 -14 22 -11 25 4 4 -4 11
-17 16 -13 5 -32 18 -42 29 -11 12 -26 18 -35 15 -12 -3 -13 -2 -4 4 9 7 5 16
-17 37 -16 15 -37 29 -47 30 -9 2 -25 17 -34 34 -10 17 -33 51 -52 74 -19 24
-39 54 -43 68 -4 14 -18 36 -31 49 -16 16 -24 36 -25 60 0 29 -2 32 -9 16 -7
-18 -9 -18 -15 -3 -3 9 -2 25 4 37 6 11 11 32 10 48 l-1 28 -11 -32 c-17 -46
-27 -51 -27 -14 0 26 -3 32 -16 27 -8 -3 -12 -2 -9 4 3 5 2 22 -2 37 l-7 28
-6 -25 c-6 -24 -7 -23 -29 18 -12 23 -26 40 -30 37 -5 -2 -15 3 -22 13 -13 16
-13 16 5 2 22 -17 20 -10 -14 44 -20 34 -25 36 -31 20 -3 -10 -5 -22 -3 -26
11 -19 21 -135 12 -151 -10 -20 -55 -20 -50 1 1 6 -3 12 -9 12 -5 0 -7 5 -4
10 4 6 3 10 -2 9 -4 -1 -10 0 -13 1 -3 1 -23 4 -44 6 -22 2 -52 8 -68 15 -15
6 -39 8 -54 5 -14 -4 -23 -3 -20 2 3 5 -19 7 -50 5 -41 -3 -63 0 -81 12 -14
10 -22 12 -19 6 4 -6 3 -11 -3 -11 -5 0 -14 8 -20 17 -8 15 -11 15 -25 4 -13
-11 -22 -11 -41 -3 -37 17 -31 53 19 113 11 14 5 8 -15 -13 -20 -20 -39 -35
-41 -32 -6 5 11 59 26 84 6 9 1 7 -12 -4 -12 -11 -22 -24 -21 -30 2 -16 -12
-56 -20 -56 -34 1 -36 45 -3 83 14 15 14 17 0 17 -9 0 -18 -7 -22 -15 -8 -23
-26 -18 -26 8 0 16 3 18 9 9 6 -11 9 -9 13 6 5 16 1 19 -26 16 -20 -3 -26 -1
-18 5 8 4 13 12 13 17 -1 5 3 9 9 9 5 0 17 10 25 23 15 20 15 22 0 22 -10 0
-31 -15 -48 -32z m-3 -103 c-9 -14 -19 -24 -21 -21 -7 7 16 46 28 46 5 0 2
-11 -7 -25z m-984 -150 c-7 -8 -18 -15 -24 -15 -6 0 -2 7 8 15 25 19 32 19 16
0z m341 -37 c17 -24 18 -29 6 -19 -18 14 -42 51 -33 51 3 0 15 -15 27 -32z
m937 12 c30 -1 34 -2 19 -11 -24 -14 -79 -7 -85 10 -3 10 0 12 12 8 10 -4 34
-7 54 -7z m69 -50 c-14 -11 -28 -20 -32 -20 -10 0 38 39 49 40 5 0 -3 -9 -17
-20z m-740 -7 c-4 -3 1 -15 10 -26 18 -20 18 -20 -10 -2 -21 13 -25 20 -15 26
16 10 24 11 15 2z m383 -26 c0 -5 -4 -5 -10 -2 -5 3 -10 14 -10 23 0 15 2 15
10 2 5 -8 10 -19 10 -23z m-300 -18 c0 -9 -57 19 -65 32 -4 5 10 2 29 -8 20
-9 36 -20 36 -24z m747 13 c-29 -32 -21 -45 21 -39 l37 7 -3 -40 c-4 -35 -6
-38 -23 -27 -17 11 -17 12 -1 31 16 19 16 19 -13 0 -28 -19 -107 -54 -122 -54
-4 0 2 7 13 15 12 9 14 14 6 15 -7 0 -10 5 -6 11 4 7 1 10 -7 7 -8 -3 -13 -11
-11 -17 1 -6 -2 -11 -8 -11 -5 0 -10 5 -10 11 0 6 -9 8 -20 5 -11 -3 -30 -9
-42 -12 -19 -6 -21 -5 -11 8 7 8 39 21 70 28 72 16 105 30 100 44 -2 6 6 16
17 22 30 17 31 16 13 -4z m-155 -11 c-8 -4 -10 -15 -6 -26 5 -12 4 -16 -4 -11
-6 4 -21 2 -33 -4 -19 -11 -20 -10 -9 9 6 12 7 21 3 21 -4 1 6 7 22 14 30 13
50 11 27 -3z m338 15 c0 -11 -19 -15 -25 -6 -3 5 1 10 9 10 9 0 16 -2 16 -4z
m-1666 -42 c3 -8 2 -12 -4 -9 -6 3 -10 10 -10 16 0 14 7 11 14 -7z m1401 6 c3
-5 -1 -10 -9 -10 -9 0 -16 5 -16 10 0 6 4 10 9 10 6 0 13 -4 16 -10z m259 -5
c-4 -8 -10 -12 -15 -9 -14 8 -10 24 6 24 9 0 12 -6 9 -15z m-89 -35 c-3 -5
-11 -10 -16 -10 -6 0 -7 5 -4 10 3 6 11 10 16 10 6 0 7 -4 4 -10z m-1100 -20
c3 -5 -1 -10 -9 -10 -8 0 -18 5 -21 10 -3 6 1 10 9 10 8 0 18 -4 21 -10z
m-588 -47 c-8 -7 -37 9 -31 19 3 5 12 4 20 -3 8 -6 13 -14 11 -16z m423 -51
c25 -12 38 -21 30 -21 -8 0 -26 6 -40 14 -14 8 -36 15 -50 15 -14 0 -31 4 -39
9 -27 18 53 3 99 -17z m-402 -17 c-6 -6 -58 8 -58 16 0 4 14 3 31 -3 16 -6 29
-12 27 -13z m-53 -15 c3 -5 2 -10 -4 -10 -5 0 -13 5 -16 10 -3 6 -2 10 4 10 5
0 13 -4 16 -10z m185 0 c12 -8 11 -10 -7 -10 -12 0 -25 5 -28 10 -8 13 15 13
35 0z m-88 -14 c7 4 8 2 4 -4 -4 -7 -2 -12 4 -12 6 0 8 -5 4 -11 -5 -9 1 -10
22 -5 19 4 24 3 15 -3 -11 -7 -9 -10 8 -16 11 -3 26 -3 31 0 6 4 18 1 26 -6
12 -10 20 -10 33 -2 11 7 30 8 52 3 l34 -8 -43 -1 c-24 -1 -41 -5 -38 -10 13
-21 -29 -19 -83 4 -32 13 -70 25 -84 27 -35 5 -47 18 -16 18 24 1 24 1 -3 16
-35 19 -36 27 -2 14 14 -6 30 -7 36 -4z m143 4 c-3 -5 -12 -10 -18 -10 -7 0
-6 4 3 10 19 12 23 12 15 0z m285 0 c13 -8 13 -10 -2 -10 -9 0 -20 5 -23 10
-8 13 5 13 25 0z m-227 -7 c-7 -2 -19 -2 -25 0 -7 3 -2 5 12 5 14 0 19 -2 13
-5z m-548 -21 c-3 -3 -11 0 -18 7 -9 10 -8 11 6 5 10 -3 15 -9 12 -12z m284 2
c2 -2 -7 -4 -22 -4 -14 0 -29 5 -32 10 -6 10 42 4 54 -6z m-105 -56 c7 -5 3
-8 -9 -8 -19 -1 -19 -1 -2 -14 17 -13 16 -14 -2 -19 -11 -2 -22 1 -24 8 -3 6
-26 18 -51 25 -26 7 -49 16 -51 20 -5 8 77 -14 95 -25 14 -9 12 9 -2 24 -11
10 -10 11 5 6 12 -5 17 -2 18 11 1 17 2 17 6 -1 3 -11 10 -23 17 -27z m1816
-4 c0 -2 -13 2 -30 11 -16 9 -30 18 -30 21 0 2 14 -2 30 -11 17 -9 30 -18 30
-21z m17 -11 c-4 -4 5 -20 20 -37 l28 -31 -32 29 c-28 25 -35 46 -16 46 4 0 3
-3 0 -7z m-1770 -19 c-3 -3 -12 -4 -19 -1 -8 3 -5 6 6 6 11 1 17 -2 13 -5z
m1628 -24 c-3 -5 -13 -10 -21 -10 -8 0 -14 5 -14 10 0 6 9 10 21 10 11 0 17
-4 14 -10z m-1695 -80 c-16 -12 -20 -20 -10 -20 9 0 11 -3 4 -10 -5 -5 -34
-12 -64 -15 -49 -5 -52 -4 -35 10 11 8 25 15 30 15 6 0 28 9 50 20 51 24 56
24 25 0z m-20 -79 c-19 -16 -37 -28 -39 -25 -3 2 4 11 15 19 10 8 15 15 9 16
-8 1 28 15 45 18 3 0 -11 -13 -30 -28z m325 9 c-3 -5 -12 -10 -18 -10 -7 0 -6
4 3 10 19 12 23 12 15 0z m-395 -15 c-10 -12 -9 -15 6 -15 16 0 17 -2 4 -10
-8 -5 -22 -9 -30 -9 -10 0 -11 2 -2 6 6 2 9 9 6 15 -4 6 0 14 7 19 20 13 23
11 9 -6z m-90 -5 c0 -5 -5 -10 -11 -10 -5 0 -7 5 -4 10 3 6 8 10 11 10 2 0 4
-4 4 -10z m-33 -36 c-3 -3 -12 -4 -19 -1 -8 3 -5 6 6 6 11 1 17 -2 13 -5z m80
0 c-3 -3 -12 -4 -19 -1 -8 3 -5 6 6 6 11 1 17 -2 13 -5z m-127 -45 c-6 -13
-25 -32 -41 -42 -17 -9 -28 -20 -25 -25 2 -4 -4 -8 -15 -8 -16 0 -14 5 13 33
l32 33 -34 -5 c-34 -5 -34 -5 -7 6 15 6 27 15 27 20 0 5 7 9 16 9 11 0 14 -6
10 -17 -3 -12 0 -10 11 5 20 28 27 23 13 -9z m25 -21 c-6 -17 -4 -20 9 -15 9
4 16 3 16 -2 0 -11 -36 -23 -75 -26 l-30 -3 31 14 c17 7 34 22 37 33 3 12 8
21 12 21 3 0 3 -10 0 -22z m-66 -74 c-7 -8 -30 -24 -51 -35 -23 -12 -36 -24
-32 -31 4 -7 3 -8 -4 -4 -6 4 -21 2 -32 -4 -12 -6 -26 -10 -32 -8 -6 2 8 14
33 25 24 12 53 29 64 37 11 9 -2 5 -29 -9 -27 -14 -56 -25 -64 -25 -7 0 12 13
43 30 31 16 61 27 66 24 5 -3 17 0 26 5 25 14 27 13 12 -5z m-179 -78 c0 -2
-7 -7 -16 -10 -8 -3 -12 -2 -9 4 6 10 25 14 25 6z m130 -90 c0 -2 -7 -7 -16
-10 -8 -3 -12 -2 -9 4 6 10 25 14 25 6z m-120 -166 c-20 -13 -33 -13 -25 0 3
6 14 10 23 10 15 0 15 -2 2 -10z m-52 -24 c-7 -8 -16 -12 -21 -9 -11 7 2 23
19 23 12 0 12 -2 2 -14z m-74 -51 c-17 -8 -59 -45 -93 -82 -33 -37 -61 -64
-61 -60 0 9 45 62 83 95 15 14 25 28 22 31 -7 6 44 29 65 29 8 0 1 -6 -16 -13z
m-94 -149 c0 -3 -4 -8 -10 -11 -5 -3 -10 -1 -10 4 0 6 5 11 10 11 6 0 10 -2
10 -4z m-40 -36 c-8 -5 -15 -19 -15 -31 0 -13 -14 -32 -35 -47 -19 -14 -29
-20 -22 -12 6 8 12 21 12 29 0 17 61 84 69 75 3 -3 -1 -9 -9 -14z m-97 -95
c-3 -9 -8 -14 -10 -11 -3 3 -2 9 2 15 9 16 15 13 8 -4z m127 -109 c0 -2 -7 -7
-16 -10 -8 -3 -12 -2 -9 4 6 10 25 14 25 6z m32 -45 c-12 -10 -23 -30 -24 -44
-1 -14 -5 -24 -9 -22 -3 3 -16 -7 -28 -21 -20 -23 -41 -25 -41 -3 0 6 4 8 8 5
10 -6 22 3 42 28 14 18 13 19 -5 13 -11 -4 -1 10 24 33 24 22 46 38 49 35 3
-3 -5 -13 -16 -24z m2598 -331 c0 -5 -5 -10 -11 -10 -5 0 -7 5 -4 10 3 6 8 10
11 10 2 0 4 -4 4 -10z m1018 -12 c-6 -18 -28 -21 -28 -4 0 9 7 16 16 16 9 0
14 -5 12 -12z m-505 -15 c-7 -2 -19 -2 -25 0 -7 3 -2 5 12 5 14 0 19 -2 13 -5z
m-453 -33 c-77 -24 -172 -49 -164 -41 5 4 36 16 69 25 33 10 65 19 70 21 6 2
19 3 30 3 16 0 15 -1 -5 -8z m537 -26 c-3 -3 -12 -4 -19 -1 -8 3 -5 6 6 6 11
1 17 -2 13 -5z m-741 -43 c-9 -10 -16 -22 -15 -27 1 -5 1 -38 0 -74 -2 -79
-18 -63 -27 28 -6 54 -5 60 17 76 32 22 46 20 25 -3z m73 -65 c2 -71 -13 -98
-21 -38 -6 43 1 102 12 102 4 0 8 -29 9 -64z m-209 14 c0 -5 -4 -10 -10 -10
-5 0 -10 5 -10 10 0 6 5 10 10 10 6 0 10 -4 10 -10z m343 -149 c-9 -12 -25 20
-18 36 7 16 9 15 15 -7 4 -14 5 -27 3 -29z m244 35 c-3 -8 -1 -17 6 -19 20 -7
-14 -59 -35 -54 -9 3 -16 0 -15 -5 1 -6 -4 -13 -12 -16 -11 -3 -12 1 -6 19 4
13 9 39 12 57 4 26 10 32 30 32 18 0 24 -4 20 -14z m-212 -41 c0 -25 -3 -45
-7 -45 -9 0 -10 52 -2 74 9 22 9 21 9 -29z m-130 -45 c3 -5 1 -10 -4 -10 -6 0
-11 5 -11 10 0 6 2 10 4 10 3 0 8 -4 11 -10z m-180 -100 c-5 -8 -11 -8 -17 -2
-6 6 -7 16 -3 22 5 8 11 8 17 2 6 -6 7 -16 3 -22z m275 -150 c0 -13 -11 -13
-30 0 -12 8 -11 10 8 10 12 0 22 -4 22 -10z"/>
<path d="M2170 6130 c-9 -6 -10 -10 -3 -10 6 0 15 5 18 10 8 12 4 12 -15 0z"/>
<path d="M3557 6943 c-4 -3 -7 -11 -7 -17 0 -6 5 -5 12 2 6 6 9 14 7 17 -3 3
-9 2 -12 -2z"/>
<path d="M2625 6800 c-3 -6 1 -7 9 -4 18 7 21 14 7 14 -6 0 -13 -4 -16 -10z"/>
<path d="M2105 6390 c3 -5 11 -10 16 -10 6 0 7 5 4 10 -3 6 -11 10 -16 10 -6
0 -7 -4 -4 -10z"/>
<path d="M1905 6270 c-3 -5 -1 -10 4 -10 6 0 11 5 11 10 0 6 -2 10 -4 10 -3 0
-8 -4 -11 -10z"/>
<path d="M1924 6238 c-4 -7 -3 -8 4 -4 7 4 12 3 12 -3 0 -5 -9 -13 -20 -16
-11 -3 -20 -12 -20 -20 0 -10 9 -11 36 -5 54 12 62 26 26 44 -23 12 -33 13
-38 4z"/>
<path d="M1840 6181 c-17 -5 -21 -9 -13 -14 12 -7 53 7 53 18 0 6 -7 5 -40 -4z"/>
<path d="M1711 6096 c-21 -21 -30 -39 -26 -47 5 -7 4 -10 -3 -6 -5 4 -22 -8
-37 -25 -15 -18 -70 -80 -124 -136 -53 -57 -99 -111 -102 -121 -4 -9 -14 -23
-23 -30 -9 -7 -16 -18 -16 -23 0 -6 -10 -24 -22 -40 -12 -18 -23 -50 -25 -78
-3 -44 -2 -48 16 -43 24 6 69 54 105 113 l29 45 -52 -52 c-28 -28 -51 -56 -51
-61 0 -6 -5 -14 -11 -17 -7 -5 -8 5 -3 32 4 23 21 54 45 80 21 23 51 70 68
105 30 64 87 128 115 128 8 0 18 5 22 12 5 7 3 8 -6 3 -9 -6 -11 -4 -6 4 5 7
15 10 23 7 8 -3 12 -2 9 3 -3 4 18 34 45 67 72 84 96 148 30 80z"/>
<path d="M1771 6076 c-8 -10 -9 -16 -1 -21 6 -4 -2 -17 -20 -32 -17 -13 -28
-29 -25 -34 9 -13 50 17 63 46 10 21 9 25 -6 25 -14 0 -15 2 -2 10 8 5 12 12
9 15 -4 3 -12 -1 -18 -9z"/>
<path d="M2164 6009 c-3 -6 -20 -19 -38 -30 -17 -10 -25 -19 -19 -19 13 0 83
59 71 60 -4 0 -10 -5 -14 -11z"/>
<path d="M1698 5973 c7 -3 16 -2 19 1 4 3 -2 6 -13 5 -11 0 -14 -3 -6 -6z"/>
<path d="M1673 5938 c-13 -6 -23 -18 -23 -26 0 -12 7 -9 28 9 15 13 29 25 31
27 13 7 -17 -1 -36 -10z"/>
<path d="M1639 5869 l-24 -20 28 17 c15 9 27 18 27 20 0 8 -8 4 -31 -17z"/>
<path d="M1569 5811 c-13 -11 -21 -22 -18 -25 3 -3 16 5 29 19 28 30 22 33
-11 6z"/>
<path d="M1947 5781 c-4 -17 -2 -18 14 -8 22 14 25 27 5 27 -7 0 -16 -9 -19
-19z"/>
<path d="M1485 5743 l-17 -28 23 22 c12 12 20 25 17 28 -3 3 -13 -7 -23 -22z"/>
<path d="M1529 5723 c-36 -43 -40 -55 -9 -26 19 18 32 35 29 38 -3 3 -12 -3
-20 -12z"/>
<path d="M1495 5570 c-3 -6 1 -7 9 -4 18 7 21 14 7 14 -6 0 -13 -4 -16 -10z"/>
<path d="M1351 5474 c0 -11 3 -14 6 -6 3 7 2 16 -1 19 -3 4 -6 -2 -5 -13z"/>
<path d="M1287 5467 c-4 -10 -7 -26 -7 -35 1 -15 2 -15 11 1 6 10 9 25 7 35
-3 16 -4 15 -11 -1z"/>
<path d="M1459 5443 c-13 -16 -12 -17 4 -4 9 7 17 15 17 17 0 8 -8 3 -21 -13z"/>
<path d="M1330 5441 c0 -5 -3 -18 -6 -28 -5 -16 -4 -16 10 1 18 23 20 36 6 36
-5 0 -10 -4 -10 -9z"/>
<path d="M1270 5370 c0 -13 7 -20 20 -20 13 0 20 7 20 20 0 13 -7 20 -20 20
-13 0 -20 -7 -20 -20z"/>
<path d="M1260 5299 c0 -11 5 -17 10 -14 6 3 10 13 10 21 0 8 -4 14 -10 14 -5
0 -10 -9 -10 -21z"/>
<path d="M1260 5209 c0 -11 4 -18 10 -14 5 3 7 12 3 20 -7 21 -13 19 -13 -6z"/>
<path d="M1654 5126 c-47 -51 -91 -116 -80 -116 3 0 17 18 31 40 14 23 30 38
35 35 6 -4 14 4 19 17 5 13 20 35 34 51 15 15 22 27 18 27 -5 0 -31 -24 -57
-54z"/>
<path d="M1610 4994 c-6 -15 -22 -35 -35 -46 -14 -11 -25 -26 -25 -34 0 -9 12
-1 28 18 40 47 64 88 52 88 -6 0 -15 -12 -20 -26z"/>
<path d="M1247 4914 c-4 -4 -7 -14 -7 -23 0 -11 3 -12 11 -4 6 6 10 16 7 23
-2 6 -7 8 -11 4z"/>
<path d="M1367 4893 c-4 -3 -7 -11 -7 -17 0 -6 5 -5 12 2 6 6 9 14 7 17 -3 3
-9 2 -12 -2z"/>
<path d="M1396 4875 c-9 -26 -7 -32 5 -12 6 10 9 21 6 23 -2 3 -7 -2 -11 -11z"/>
<path d="M1580 4880 c-9 -6 -10 -10 -3 -10 6 0 15 5 18 10 8 12 4 12 -15 0z"/>
<path d="M1247 4853 c-4 -3 -7 -11 -7 -17 0 -6 5 -5 12 2 6 6 9 14 7 17 -3 3
-9 2 -12 -2z"/>
<path d="M1476 4836 c-23 -36 -20 -44 5 -12 12 15 19 29 16 32 -2 2 -12 -7
-21 -20z"/>
<path d="M1574 4828 l-19 -23 23 19 c21 18 27 26 19 26 -2 0 -12 -10 -23 -22z"/>
<path d="M1521 4793 c-25 -53 -16 -48 18 10 13 20 19 37 14 37 -5 0 -19 -21
-32 -47z"/>
<path d="M1426 4793 c-6 -14 -5 -15 5 -6 7 7 10 15 7 18 -3 3 -9 -2 -12 -12z"/>
<path d="M1490 4795 c-7 -9 -11 -17 -9 -20 3 -2 10 5 17 15 14 24 10 26 -8 5z"/>
<path d="M5000 4761 c0 -5 -6 -16 -13 -23 -7 -7 -23 -30 -36 -51 -19 -31 -22
-47 -17 -84 3 -25 14 -52 24 -60 16 -13 15 -14 -6 -10 -12 3 -20 1 -16 -4 8
-14 74 -11 76 4 1 6 2 39 2 72 l1 60 52 0 53 -1 -6 41 c-4 22 -13 46 -22 53
-18 14 -92 17 -92 3z"/>
<path d="M1444 4725 c-4 -8 -9 -13 -13 -11 -4 3 -7 -3 -8 -12 -1 -9 -5 -42 -8
-72 -4 -30 -4 -52 0 -49 3 4 8 22 10 40 2 19 11 54 19 77 8 23 13 42 10 42 -2
0 -7 -7 -10 -15z"/>
<path d="M1511 4694 c0 -11 3 -14 6 -6 3 7 2 16 -1 19 -3 4 -6 -2 -5 -13z"/>
<path d="M3910 4696 c0 -8 5 -18 10 -21 6 -3 10 1 10 9 0 8 -4 18 -10 21 -5 3
-10 -1 -10 -9z"/>
<path d="M3098 4613 c7 -3 16 -2 19 1 4 3 -2 6 -13 5 -11 0 -14 -3 -6 -6z"/>
<path d="M1381 4594 c0 -11 3 -14 6 -6 3 7 2 16 -1 19 -3 4 -6 -2 -5 -13z"/>
<path d="M5038 4590 c-7 -24 -3 -38 8 -28 3 4 4 17 2 30 l-3 23 -7 -25z"/>
<path d="M4900 4576 c0 -8 -6 -17 -12 -19 -8 -4 -9 -6 -2 -6 18 -1 37 26 24
34 -5 3 -10 0 -10 -9z"/>
<path d="M4813 4523 c9 -2 23 -2 30 0 6 3 -1 5 -18 5 -16 0 -22 -2 -12 -5z"/>
<path d="M5035 4521 c6 -10 12 -67 17 -163 4 -77 22 -57 22 24 0 69 -19 148
-35 148 -6 0 -8 -4 -4 -9z"/>
<path d="M4945 4501 c-3 -5 -1 -12 5 -16 5 -3 10 1 10 9 0 18 -6 21 -15 7z"/>
<path d="M1557 4443 c-3 -10 -5 -37 -6 -60 -2 -41 -1 -42 22 -34 13 5 49 12
80 16 l57 7 -27 21 c-18 15 -28 17 -31 9 -3 -9 -9 -9 -24 -1 -16 9 -20 7 -25
-10 -6 -25 -23 -18 -23 10 0 13 -4 18 -11 13 -9 -5 -10 1 -5 20 3 14 4 26 2
26 -3 0 -7 -8 -9 -17z"/>
<path d="M3531 4424 c0 -11 3 -14 6 -6 3 7 2 16 -1 19 -3 4 -6 -2 -5 -13z"/>
<path d="M2103 4423 c9 -2 23 -2 30 0 6 3 -1 5 -18 5 -16 0 -22 -2 -12 -5z"/>
<path d="M2007 4410 c-20 -4 -41 -11 -45 -15 -4 -4 4 -5 18 -2 14 4 37 7 53 7
15 0 27 5 27 10 0 6 -3 9 -7 9 -5 -1 -25 -5 -46 -9z"/>
<path d="M3522 4345 c-1 -27 -7 -79 -12 -115 -21 -137 -21 -130 0 -86 10 21
24 42 31 47 11 7 10 9 -3 9 -23 0 -23 16 -1 29 13 7 14 12 6 23 -7 8 -14 43
-16 78 -3 58 -3 60 -5 15z"/>
<path d="M1512 4368 c-16 -16 -15 -28 3 -28 8 0 15 9 15 20 0 23 -2 24 -18 8z"/>
<path d="M5132 4355 c0 -16 2 -22 5 -12 2 9 2 23 0 30 -3 6 -5 -1 -5 -18z"/>
<path d="M1357 4348 c-2 -7 0 -23 4 -35 7 -19 5 -23 -11 -23 -10 0 -21 -4 -25
-10 -9 -15 32 -50 63 -52 35 -1 43 -3 67 -11 11 -4 34 -3 50 2 l30 8 -38 8
c-47 9 -67 28 -67 65 0 34 -9 60 -21 60 -5 0 -9 -9 -9 -20 0 -11 -4 -20 -10
-20 -5 0 -10 6 -10 14 0 20 -17 29 -23 14z"/>
<path d="M3128 4353 c7 -3 16 -2 19 1 4 3 -2 6 -13 5 -11 0 -14 -3 -6 -6z"/>
<path d="M2968 4342 c-9 -2 -19 -10 -22 -18 -4 -10 -1 -14 6 -12 20 7 39 -39
28 -67 -8 -22 -20 -27 -55 -25 -3 1 -12 -6 -21 -14 -24 -25 -78 -30 -107 -11
-18 11 -27 13 -32 5 -12 -20 8 -28 70 -30 137 -5 155 -2 165 26 6 15 11 48 12
75 0 41 4 49 19 49 18 0 28 19 12 21 -21 4 -60 4 -75 1z"/>
<path d="M3190 4334 c57 -26 80 -34 80 -29 0 9 -79 45 -97 45 -10 -1 -3 -7 17
-16z"/>
<path d="M2810 4314 c-35 -8 -71 -21 -79 -29 -11 -10 -11 -15 -3 -15 7 0 12
-6 12 -13 0 -7 9 -13 20 -14 11 -1 18 2 15 8 -4 5 3 9 14 9 15 0 21 6 21 21 0
18 2 19 15 9 8 -7 15 -19 15 -28 0 -8 10 -24 23 -36 21 -20 23 -20 40 -3 20
20 23 67 5 86 -11 11 -10 13 5 8 9 -4 17 -2 17 3 0 13 -41 11 -120 -6z"/>
<path d="M3085 4316 c11 -8 23 -12 26 -10 4 2 15 -6 25 -17 17 -19 17 -21 0
-49 -15 -27 -16 -31 -2 -36 9 -3 27 -3 41 0 28 7 34 -8 9 -22 -12 -7 -13 -11
-5 -17 15 -9 73 14 65 26 -3 5 -9 7 -14 4 -5 -3 -11 -1 -15 5 -4 6 8 10 29 10
39 0 66 8 66 20 0 10 -98 40 -129 40 -12 0 -21 6 -21 16 0 8 -16 22 -35 30
-44 18 -65 18 -40 0z"/>
<path d="M5122 4290 c0 -14 2 -19 5 -12 2 6 2 18 0 25 -3 6 -5 1 -5 -13z"/>
<path d="M1626 4234 c-5 -14 -4 -15 9 -4 17 14 19 20 6 20 -5 0 -12 -7 -15
-16z"/>
<path d="M2600 4205 c-10 -13 -9 -15 11 -15 37 0 69 11 63 21 -9 15 -61 10
-74 -6z"/>
<path d="M4500 4160 c0 -8 -9 -11 -29 -7 -19 4 -31 2 -34 -6 -4 -10 13 -11 76
-5 74 7 117 18 70 18 -11 0 -35 3 -52 6 -21 5 -31 3 -31 -6z"/>
<path d="M1200 3965 c0 -28 49 -126 50 -99 0 29 -20 86 -36 104 -12 12 -14 12
-14 -5z"/>
<path d="M4035 3379 c-25 -23 -44 -44 -42 -46 10 -9 91 48 94 66 4 29 -1 27
-52 -20z"/>
<path d="M4143 3377 c-78 -33 -121 -75 -119 -116 1 -24 10 -40 31 -57 16 -13
26 -26 22 -30 -4 -4 -17 2 -30 13 -44 40 -51 36 -14 -7 33 -39 52 -90 27 -75
-5 3 -10 12 -10 19 0 17 -53 66 -71 66 -10 -1 -9 -4 5 -15 24 -18 46 -62 40
-79 -5 -13 22 -25 75 -32 l24 -3 -22 15 c-27 20 -17 38 12 22 12 -6 29 -12 37
-13 8 -1 23 -2 32 -3 9 -1 20 -11 23 -22 3 -11 11 -20 16 -20 5 0 9 9 9 20 0
11 4 20 10 20 5 0 15 -9 22 -20 7 -11 20 -20 28 -20 10 0 7 7 -10 20 l-25 21
30 -7 30 -6 -24 18 -24 17 21 8 c12 5 34 4 48 -1 14 -6 23 -6 20 -2 -2 4 0 14
6 22 8 12 9 12 4 -2 -3 -10 -1 -20 5 -24 6 -4 6 -11 -2 -20 -8 -10 -8 -14 0
-14 6 0 11 5 11 11 0 7 10 9 28 4 22 -5 25 -4 15 6 -18 18 -16 34 2 19 20 -17
19 -1 -2 24 -10 12 -11 15 -3 9 8 -7 21 -13 30 -13 8 0 24 -10 35 -22 12 -15
20 -18 23 -10 3 10 7 10 20 0 15 -10 15 -10 4 2 -7 8 -16 15 -20 15 -13 1 -87
55 -74 55 21 0 13 16 -15 30 -16 8 -36 21 -45 29 -16 13 -18 12 -18 -7 0 -11
4 -23 9 -26 5 -3 11 -15 14 -26 5 -19 3 -20 -11 -8 -31 24 -41 36 -60 69 -17
30 -24 34 -60 34 -22 0 -47 6 -54 14 -11 11 -10 12 9 2 31 -16 53 -14 31 3
-10 7 -18 18 -18 24 0 5 -9 8 -20 5 -22 -6 -29 21 -7 30 13 5 22 58 9 56 -4 0
-30 -11 -59 -22z m152 -127 c3 -5 2 -10 -4 -10 -5 0 -13 5 -16 10 -3 6 -2 10
4 10 5 0 13 -4 16 -10z m-188 -66 c-4 -4 -14 1 -22 12 -22 29 -18 41 7 17 12
-13 19 -26 15 -29z m208 -3 c3 -5 -8 -3 -25 5 -16 9 -32 20 -36 25 -3 6 8 4
24 -5 17 -9 33 -20 37 -25z m-37 -23 c7 -7 12 -19 12 -27 0 -11 -4 -10 -20 4
-21 19 -26 35 -12 35 4 0 13 -5 20 -12z m-23 -66 c-3 -3 -11 0 -18 7 -9 10 -8
11 6 5 10 -3 15 -9 12 -12z"/>
<path d="M3544 3375 c11 -8 34 -15 50 -15 29 1 30 1 12 15 -11 8 -34 15 -50
15 -29 -1 -30 -1 -12 -15z"/>
<path d="M4450 3366 c0 -2 8 -10 18 -17 15 -13 16 -12 3 4 -13 16 -21 21 -21
13z"/>
<path d="M4503 3324 c21 -25 22 -38 2 -31 -20 8 -29 -10 -9 -21 18 -10 20 -22
5 -32 -7 -4 3 -20 26 -44 21 -20 30 -34 21 -31 -9 4 -19 2 -23 -4 -3 -6 -11
-11 -18 -11 -6 0 -2 6 9 14 17 13 18 15 2 21 -10 4 -23 5 -29 3 -7 -2 -25 10
-41 26 -31 35 -39 31 -8 -4 12 -13 18 -30 15 -37 -2 -8 -1 -12 4 -9 5 3 14 -1
21 -9 7 -8 18 -15 25 -15 8 0 22 -10 32 -23 10 -13 32 -32 48 -42 26 -17 28
-17 16 -2 -7 9 -10 17 -6 17 3 0 -8 12 -25 26 -24 20 -28 29 -18 35 19 13 28
11 28 -5 0 -7 11 -21 25 -30 28 -19 34 -11 8 11 -10 8 -13 12 -7 9 7 -3 15 1
18 10 8 22 8 26 -3 19 -5 -3 -12 -1 -16 4 -3 6 -11 8 -18 6 -7 -3 -22 13 -34
35 -12 22 -17 40 -12 40 5 0 17 -17 28 -37 11 -21 20 -34 21 -29 0 5 7 3 15
-4 20 -17 19 -6 -2 28 -16 24 -16 26 -1 14 9 -7 25 -33 35 -58 20 -49 39 -60
29 -16 -5 23 -5 24 5 9 6 -10 9 -28 6 -38 -6 -21 20 -76 39 -83 12 -5 3 61
-17 121 -11 34 -83 104 -134 130 -16 9 -32 19 -35 22 -3 3 -14 13 -25 21 -19
14 -20 14 -2 -6z m71 -70 c3 -8 2 -12 -4 -9 -6 3 -10 10 -10 16 0 14 7 11 14
-7z"/>
<path d="M4420 3273 c0 -12 70 -77 75 -71 3 3 -1 11 -10 18 -8 7 -15 17 -15
23 0 10 -30 36 -42 37 -5 0 -8 -3 -8 -7z"/>
<path d="M4958 3235 c-3 -14 -1 -28 3 -31 5 -3 9 1 9 10 0 8 3 21 6 30 3 9 2
16 -4 16 -5 0 -12 -11 -14 -25z"/>
<path d="M3760 3121 c0 -16 5 -33 10 -36 6 -4 10 6 10 24 0 16 -4 33 -10 36
-6 4 -10 -6 -10 -24z"/>
<path d="M3720 3070 c0 -23 15 -27 23 -6 3 8 -1 17 -9 20 -9 4 -14 -1 -14 -14z"/>
<path d="M3605 3070 c-3 -5 -1 -10 4 -10 6 0 11 5 11 10 0 6 -2 10 -4 10 -3 0
-8 -4 -11 -10z"/>
<path d="M4450 3072 c0 -12 19 -26 26 -19 2 2 -2 10 -11 17 -9 8 -15 8 -15 2z"/>
<path d="M4551 3063 c7 -12 15 -20 18 -17 3 2 -3 12 -13 22 -17 16 -18 16 -5
-5z"/>
<path d="M4325 3060 c3 -5 11 -10 16 -10 6 0 7 5 4 10 -3 6 -11 10 -16 10 -6
0 -7 -4 -4 -10z"/>
<path d="M4667 3040 c6 -22 23 -38 23 -21 0 17 -12 41 -20 41 -5 0 -6 -9 -3
-20z"/>
<path d="M4927 2959 c-3 -13 -10 -18 -17 -14 -8 5 -11 1 -9 -11 2 -11 0 -25
-5 -33 -6 -9 -5 -12 1 -8 15 10 54 87 44 87 -5 0 -11 -9 -14 -21z"/>
<path d="M4563 2930 c21 -30 23 -52 2 -24 -13 18 -14 16 -16 -21 -2 -31 -3
-34 -6 -12 -4 24 -13 32 -35 28 -5 0 -7 4 -5 10 1 7 -11 15 -26 20 -25 7 -27
5 -22 -14 6 -22 6 -22 -10 -2 -14 17 -17 18 -25 5 -5 -8 -10 -21 -10 -27 0 -7
-5 -13 -11 -13 -6 0 -9 6 -6 13 3 8 1 20 -4 28 -7 11 -9 11 -9 -3 0 -10 -7
-16 -18 -15 -9 0 -45 -8 -79 -19 l-63 -19 0 -41 c0 -43 -14 -64 -41 -64 -9 0
-22 -6 -28 -14 -6 -8 -32 -19 -56 -25 -24 -6 -48 -18 -53 -27 -10 -18 -61 -31
-197 -49 l-100 -13 150 4 c164 6 240 -3 240 -26 0 -8 8 -16 19 -18 11 -3 16 0
12 7 -4 6 -3 11 3 11 19 0 21 -19 4 -29 -10 -5 -15 -12 -12 -15 3 -3 15 3 26
14 12 10 24 16 27 12 4 -3 9 4 13 16 3 12 13 22 23 22 10 0 21 7 24 16 3 8 11
12 17 8 8 -4 9 -3 5 4 -4 6 2 17 14 24 11 7 20 18 20 25 0 7 5 13 10 13 6 0
10 -6 10 -12 0 -9 3 -8 9 2 6 8 7 18 5 22 -3 4 2 5 11 2 11 -5 14 -2 9 9 -4
11 0 15 15 14 15 -1 17 -4 9 -14 -6 -7 -7 -13 -2 -14 5 0 17 -2 26 -4 9 -2 19
3 21 10 3 7 15 15 26 18 12 3 19 2 16 -3 -3 -4 2 -13 10 -20 10 -9 15 -9 15
-1 0 6 9 11 20 11 18 0 25 -11 21 -34 -1 -5 5 -4 13 4 14 11 16 9 16 -9 0 -11
4 -21 10 -21 12 0 8 27 -9 58 -8 15 -18 21 -30 17 -11 -3 -25 3 -37 17 -10 13
-12 17 -4 11 18 -16 34 -17 24 -1 -4 7 -3 8 5 4 6 -4 8 -12 5 -18 -4 -7 -2 -8
4 -4 7 4 12 14 12 22 0 10 5 12 13 7 34 -21 44 -13 45 35 0 56 -8 73 -50 103
l-32 23 17 -24z m-303 -95 c0 -8 -4 -17 -10 -20 -6 -4 -10 5 -10 20 0 15 4 24
10 20 6 -3 10 -12 10 -20z"/>
<path d="M4525 2920 c3 -5 8 -10 11 -10 2 0 4 5 4 10 0 6 -5 10 -11 10 -5 0
-7 -4 -4 -10z"/>
<path d="M4636 2905 c8 -37 14 -45 14 -19 0 10 -5 26 -10 34 -8 11 -9 7 -4
-15z"/>
<path d="M4666 2905 c4 -8 7 -15 9 -15 2 0 5 7 9 15 3 9 0 15 -9 15 -9 0 -12
-6 -9 -15z"/>
<path d="M4881 2853 c1 -10 -2 -38 -6 -63 -3 -24 -4 -42 -1 -39 3 3 8 19 10
35 3 16 8 39 11 50 4 12 2 25 -4 28 -5 4 -10 -2 -10 -11z"/>
<path d="M4642 2830 c0 -14 2 -19 5 -12 2 6 2 18 0 25 -3 6 -5 1 -5 -13z"/>
<path d="M2801 2824 c0 -11 3 -14 6 -6 3 7 2 16 -1 19 -3 4 -6 -2 -5 -13z"/>
<path d="M2794 2771 c3 -18 6 -40 6 -47 0 -8 4 -14 9 -14 13 0 8 51 -8 75 -11
18 -12 16 -7 -14z"/>
<path d="M2862 2775 c0 -16 2 -22 5 -12 2 9 2 23 0 30 -3 6 -5 -1 -5 -18z"/>
<path d="M3170 2767 c0 -26 -4 -33 -20 -33 -13 0 -21 9 -26 29 -5 23 -8 26
-20 16 -8 -6 -14 -22 -14 -34 0 -18 11 -26 63 -45 34 -13 67 -25 74 -27 8 -3
11 3 8 16 -4 20 -1 21 32 15 l36 -7 -23 31 c-13 17 -27 29 -32 26 -15 -10 -46
6 -51 26 -8 32 -27 23 -27 -13z"/>
<path d="M3041 2764 c0 -11 3 -14 6 -6 3 7 2 16 -1 19 -3 4 -6 -2 -5 -13z"/>
<path d="M4600 2763 c0 -4 5 -15 10 -23 8 -13 10 -13 10 2 0 9 -4 20 -10 23
-5 3 -10 3 -10 -2z"/>
<path d="M2993 2742 c-13 -2 -30 -16 -40 -32 -9 -16 -25 -31 -34 -33 -13 -4
-17 -12 -14 -28 6 -31 -4 -61 -17 -53 -5 4 -4 -4 3 -17 l14 -24 3 29 c3 22 6
26 13 15 6 -10 9 -4 9 19 0 31 2 33 30 28 28 -4 30 -2 30 27 0 17 7 39 17 49
19 21 16 25 -14 20z"/>
<path d="M2932 2720 c-7 -11 -8 -20 -3 -20 9 0 24 30 18 36 -1 2 -8 -6 -15
-16z"/>
<path d="M3360 2715 c-7 -8 -20 -15 -29 -15 -9 -1 0 -8 18 -16 51 -22 65 -15
42 19 -16 24 -19 26 -31 12z"/>
<path d="M4375 2690 c3 -5 8 -10 11 -10 2 0 4 5 4 10 0 6 -5 10 -11 10 -5 0
-7 -4 -4 -10z"/>
<path d="M2879 2648 c4 -28 6 -29 9 -9 2 13 0 27 -5 32 -6 6 -7 -3 -4 -23z"/>
<path d="M3475 2670 c-35 -5 -31 -7 40 -14 132 -15 161 -16 146 -7 -8 5 -38 9
-68 10 -31 0 -60 4 -67 9 -6 4 -29 5 -51 2z"/>
<path d="M3693 2633 c9 -2 23 -2 30 0 6 3 -1 5 -18 5 -16 0 -22 -2 -12 -5z"/>
<path d="M4622 2610 c0 -14 2 -19 5 -12 2 6 2 18 0 25 -3 6 -5 1 -5 -13z"/>
<path d="M2860 2601 c0 -11 4 -22 9 -25 4 -3 6 6 3 19 -5 30 -12 33 -12 6z"/>
<path d="M4593 2577 c3 -9 1 -18 -6 -20 -9 -3 -9 -8 1 -18 6 -7 12 -19 12 -27
0 -16 -24 -11 -26 6 -1 7 -2 16 -3 22 0 5 -10 14 -21 20 -16 9 -18 8 -14 -5 3
-8 11 -12 17 -8 6 3 7 1 3 -5 -4 -7 -2 -12 4 -12 6 0 8 -5 5 -11 -5 -7 -11 -6
-18 3 -7 8 -21 21 -31 28 -19 15 -19 14 -2 -17 9 -18 21 -34 26 -34 6 -1 15
-2 20 -3 6 0 9 -5 8 -11 -2 -5 -7 -8 -13 -6 -47 18 -76 7 -36 -14 10 -6 32
-18 49 -27 l31 -18 -3 28 c-2 15 3 36 10 48 15 22 9 80 -9 91 -6 4 -8 0 -4
-10z"/>
<path d="M4500 2425 c0 -19 -4 -35 -10 -35 -22 0 -8 -33 31 -75 23 -25 40 -48
37 -51 -3 -3 -25 18 -49 45 -47 56 -66 62 -25 8 26 -34 35 -64 16 -52 -13 8
-13 -1 3 -26 10 -17 9 -22 -5 -33 -13 -10 -15 -15 -6 -24 9 -9 8 -12 -6 -12
-9 0 -14 -4 -11 -10 3 -5 0 -10 -7 -11 -24 -1 37 -21 68 -23 22 -1 30 3 27 12
-3 6 1 12 8 12 7 0 9 -3 6 -7 -4 -3 -2 -12 3 -19 8 -9 3 -12 -25 -10 -19 1
-35 -3 -35 -9 1 -20 35 -71 48 -69 25 3 27 4 15 12 -7 4 -10 17 -6 30 3 12 10
19 15 16 5 -3 7 -12 4 -20 -11 -28 3 -13 32 34 20 33 25 49 16 49 -7 0 -11 -3
-9 -7 2 -3 -4 -19 -14 -34 l-18 -28 -5 30 c-3 22 -1 29 9 25 10 -4 14 2 12 18
-4 47 1 56 34 64 17 4 26 9 19 12 -7 3 -18 16 -23 30 -8 21 -4 29 21 55 16 16
30 35 31 41 0 7 2 27 3 45 2 17 -1 32 -6 32 -5 0 -6 -4 -3 -10 3 -5 -3 -10
-13 -10 -13 0 -22 -9 -26 -24 -9 -35 -33 -40 -53 -10 -14 23 -83 74 -98 74 -3
0 -5 -16 -5 -35z m108 -80 c-3 -3 -9 2 -12 12 -6 14 -5 15 5 6 7 -7 10 -15 7
-18z m82 15 c0 -5 -4 -10 -10 -10 -5 0 -10 5 -10 10 0 6 5 10 10 10 6 0 10 -4
10 -10z m-125 -51 c11 -17 -1 -21 -15 -4 -8 9 -8 15 -2 15 6 0 14 -5 17 -11z
m15 -111 c0 -51 -5 -47 -14 10 -4 29 -3 41 4 37 5 -3 10 -25 10 -47z"/>
<path d="M4622 2404 c10 -10 20 -15 24 -12 3 4 -5 12 -18 18 -22 12 -22 12 -6
-6z"/>
<path d="M4047 2189 c4 -13 8 -18 11 -10 2 7 -1 18 -6 23 -8 8 -9 4 -5 -13z"/>
<path d="M3950 2191 c0 -6 4 -13 10 -16 6 -3 7 1 4 9 -7 18 -14 21 -14 7z"/>
<path d="M4430 2130 c20 -13 33 -13 25 0 -3 6 -14 10 -23 10 -15 0 -15 -2 -2
-10z"/>
<path d="M4416 2095 c1 -11 3 -23 3 -27 1 -5 11 2 23 14 15 15 23 18 26 9 3
-9 7 -9 20 1 13 11 14 11 10 -2 -3 -8 -14 -15 -25 -15 -29 0 -54 -25 -48 -46
3 -9 1 -20 -4 -24 -6 -3 -14 9 -19 27 -8 28 -9 24 -7 -27 2 -34 7 -59 13 -58
5 1 7 -7 4 -19 -5 -20 -5 -20 -23 3 -10 13 -19 28 -19 32 0 4 -6 2 -14 -5 -9
-8 -11 -19 -5 -29 4 -9 5 -26 2 -38 -4 -14 -1 -26 8 -32 11 -6 8 -9 -8 -9 -13
0 -23 -4 -23 -9 0 -5 -3 -17 -7 -27 -5 -13 -3 -15 8 -9 11 6 12 5 2 -5 -11
-12 -15 -11 -25 2 -15 19 -64 36 -54 19 4 -6 16 -11 27 -11 10 0 19 -4 19 -10
0 -5 -11 -10 -25 -10 -26 0 -35 -23 -14 -36 8 -5 6 -10 -5 -16 -15 -8 -15 -11
0 -34 9 -13 14 -27 11 -30 -2 -3 -15 11 -27 30 -12 20 -26 36 -31 36 -16 0
-10 -17 16 -48 14 -17 25 -35 25 -41 0 -11 79 39 100 64 7 9 13 29 14 45 1 17
5 30 10 30 4 0 6 9 3 20 -3 11 -1 20 4 20 5 0 9 -15 9 -34 0 -19 3 -42 7 -52
4 -12 3 -15 -5 -10 -8 5 -10 2 -6 -8 3 -9 10 -16 14 -16 10 0 21 30 15 40 -3
5 -7 22 -9 38 -3 28 -2 29 25 22 37 -11 57 17 38 53 -11 19 -10 20 3 10 21
-18 29 -6 17 26 -8 20 -8 23 2 14 7 -7 13 -35 13 -63 1 -37 6 -54 18 -61 45
-25 120 -93 149 -135 53 -78 72 -138 71 -235 0 -127 -58 -285 -154 -419 -58
-82 -201 -225 -255 -256 -27 -15 -61 -38 -76 -50 -97 -80 -373 -161 -577 -171
-125 -6 -272 7 -409 37 -99 22 -372 107 -446 140 -94 41 -240 116 -295 151
-30 20 -93 61 -140 91 -172 111 -372 289 -514 459 -166 197 -210 334 -148 459
12 24 19 46 16 49 -6 7 -75 -69 -100 -110 -17 -26 -101 -79 -126 -79 -8 0 -41
-17 -74 -38 -32 -21 -79 -49 -104 -63 -25 -13 -67 -40 -95 -60 -56 -40 -273
-170 -350 -210 -27 -14 -113 -58 -190 -98 -77 -40 -205 -107 -285 -147 -80
-41 -163 -86 -185 -100 -22 -13 -50 -29 -62 -34 -12 -5 -46 -25 -74 -45 -28
-19 -62 -38 -75 -41 l-24 -6 0 -439 0 -439 3600 0 3600 0 0 228 0 228 -36 54
c-19 30 -48 83 -65 118 -74 160 -149 239 -384 406 -175 125 -340 201 -627 291
-82 25 -183 62 -225 81 -43 20 -98 45 -123 56 -25 11 -128 61 -230 110 -208
101 -338 150 -520 198 -113 29 -254 68 -320 90 -50 16 -140 62 -140 71 0 5 9
28 21 50 11 23 16 38 11 35 -6 -3 -20 16 -33 43 -21 48 -23 49 -69 53 -41 3
-46 1 -44 -17z m50 -109 c3 -8 12 -12 20 -9 8 3 14 0 14 -6 0 -6 -4 -11 -10
-11 -5 0 -7 -8 -3 -17 6 -17 5 -17 -14 0 -11 9 -29 17 -41 17 -12 0 -22 5 -22
10 0 6 11 8 28 4 24 -7 26 -6 13 9 -9 12 -10 17 -2 17 6 0 14 -6 17 -14z
m-132 -224 c2 -4 -4 -8 -14 -8 -10 0 -16 4 -14 8 3 4 9 8 14 8 5 0 11 -4 14
-8z m-8 -57 c-17 -17 -21 -9 -10 20 5 11 10 13 17 6 6 -6 4 -15 -7 -26z m-26
-15 c0 -5 -5 -10 -11 -10 -5 0 -7 5 -4 10 3 6 8 10 11 10 2 0 4 -4 4 -10z"/>
<path d="M4315 1971 c2 -13 -3 -30 -11 -38 -8 -8 -14 -20 -14 -26 0 -7 5 -6
11 3 9 12 10 11 6 -7 -3 -13 -4 -23 -2 -23 2 0 12 -3 22 -6 15 -5 15 -4 3 5
-12 8 -12 11 3 17 10 3 14 11 9 18 -4 6 -13 27 -19 46 -7 19 -11 24 -8 11z"/>
<path d="M4259 1907 c6 -8 9 -17 6 -21 -3 -3 0 -2 6 3 12 10 4 31 -13 31 -7 0
-7 -4 1 -13z"/>
<path d="M4268 1862 c-17 -7 -17 -8 1 -19 17 -11 20 -10 18 7 -1 11 -1 20 -2
19 0 0 -8 -4 -17 -7z"/>
<path d="M4300 1851 c0 -6 4 -13 10 -16 6 -3 7 1 4 9 -7 18 -14 21 -14 7z"/>
<path d="M4415 1790 c-8 -13 15 -24 27 -12 6 6 4 11 -6 15 -8 3 -18 2 -21 -3z"/>
<path d="M4223 1771 c1 -14 9 -26 17 -28 12 -4 12 -3 2 5 -8 5 -13 12 -12 16
1 4 -1 12 -4 19 -3 6 -4 1 -3 -12z"/>
<path d="M4177 1699 c-9 -6 -22 -7 -27 -4 -6 3 -10 3 -11 -2 -4 -45 -7 -55
-16 -64 -8 -8 -13 -7 -17 0 -4 6 -2 11 3 11 6 0 11 10 10 23 0 17 -5 13 -21
-20 -22 -43 -19 -65 5 -45 7 6 25 9 40 8 15 -2 25 -1 23 2 -3 2 -1 13 5 24 7
14 7 23 -2 34 -6 8 -7 14 -1 14 5 0 17 -10 25 -22 l16 -23 0 32 c1 37 -7 45
-32 32z"/>
<path d="M4351 1664 c11 -14 10 -15 -6 -12 -24 4 -41 -48 -18 -56 8 -4 11 -1
7 5 -3 6 3 19 15 30 25 24 26 35 5 43 -14 6 -15 4 -3 -10z"/>
<path d="M3285 1660 c-3 -5 -1 -10 4 -10 6 0 11 5 11 10 0 6 -2 10 -4 10 -3 0
-8 -4 -11 -10z"/>
<path d="M4180 1631 c0 -5 5 -13 10 -16 6 -3 10 -2 10 4 0 5 -4 13 -10 16 -5
3 -10 2 -10 -4z"/>
<path d="M3900 1609 c0 -5 5 -7 10 -4 6 3 10 8 10 11 0 2 -4 4 -10 4 -5 0 -10
-5 -10 -11z"/>
<path d="M4020 1599 c0 -5 5 -7 10 -4 6 3 10 8 10 11 0 2 -4 4 -10 4 -5 0 -10
-5 -10 -11z"/>
<path d="M3756 1575 c-9 -26 -7 -32 5 -12 6 10 9 21 6 23 -2 3 -7 -2 -11 -11z"/>
<path d="M3960 1576 c0 -8 -8 -20 -17 -25 -10 -6 -13 -11 -7 -11 18 0 47 37
35 45 -6 3 -11 -1 -11 -9z"/>
<path d="M3870 1560 c0 -5 5 -10 10 -10 6 0 10 5 10 10 0 6 -4 10 -10 10 -5 0
-10 -4 -10 -10z"/>
<path d="M3775 1550 c-3 -5 -1 -10 4 -10 6 0 11 5 11 10 0 6 -2 10 -4 10 -3 0
-8 -4 -11 -10z"/>
<path d="M3821 1538 c-1 -20 24 -24 35 -6 5 7 2 9 -9 5 -9 -3 -18 -1 -21 6 -2
7 -5 4 -5 -5z"/>
<path d="M4256 1531 c-12 -13 -15 -21 -6 -21 7 0 10 -7 6 -15 -3 -8 -1 -15 5
-15 13 0 21 24 17 50 l-3 22 -19 -21z"/>
<path d="M3674 1529 c-8 -14 22 -16 39 -4 16 12 15 13 -8 11 -15 0 -29 -4 -31
-7z"/>
</g>
</svg>
